<svg width="501" height="85" viewBox="0 0 501 85" fill="none" xmlns="http://www.w3.org/2000/svg">
<g filter="url(#filter0_di)">
<path d="M7.46 8H35C41.72 8 47.69 9.32 52.91 11.96C58.13 14.54 62.18 18.23 65.06 23.03C67.94 27.77 69.38 33.26 69.38 39.5C69.38 45.74 67.94 51.26 65.06 56.06C62.18 60.8 58.13 64.49 52.91 67.13C47.69 69.71 41.72 71 35 71H7.46V8ZM34.46 61.1C39.08 61.1 43.13 60.23 46.61 58.49C50.15 56.69 52.85 54.17 54.71 50.93C56.63 47.63 57.59 43.82 57.59 39.5C57.59 35.18 56.63 31.4 54.71 28.16C52.85 24.86 50.15 22.34 46.61 20.6C43.13 18.8 39.08 17.9 34.46 17.9H19.16V61.1H34.46ZM81.8155 8H93.5155V71H81.8155V8ZM153.576 38.78H164.646V63.89C161.406 66.47 157.626 68.45 153.306 69.83C148.986 71.21 144.546 71.9 139.986 71.9C133.566 71.9 127.776 70.52 122.616 67.76C117.456 64.94 113.406 61.07 110.466 56.15C107.526 51.23 106.056 45.68 106.056 39.5C106.056 33.32 107.526 27.77 110.466 22.85C113.406 17.93 117.456 14.09 122.616 11.33C127.836 8.51 133.686 7.1 140.166 7.1C145.446 7.1 150.246 7.97 154.566 9.71C158.886 11.45 162.516 14 165.456 17.36L158.076 24.56C153.276 19.76 147.486 17.36 140.706 17.36C136.266 17.36 132.306 18.29 128.826 20.15C125.406 22.01 122.706 24.62 120.726 27.98C118.806 31.34 117.846 35.18 117.846 39.5C117.846 43.7 118.806 47.48 120.726 50.84C122.706 54.2 125.406 56.84 128.826 58.76C132.306 60.68 136.236 61.64 140.616 61.64C145.536 61.64 149.856 60.56 153.576 58.4V38.78ZM180.077 8H191.777V71H180.077V8ZM237.977 71.9C231.617 71.9 225.857 70.52 220.697 67.76C215.597 64.94 211.577 61.07 208.637 56.15C205.757 51.23 204.317 45.68 204.317 39.5C204.317 33.32 205.787 27.77 208.727 22.85C211.667 17.93 215.687 14.09 220.787 11.33C225.947 8.51 231.707 7.1 238.067 7.1C243.227 7.1 247.937 8 252.197 9.8C256.457 11.6 260.057 14.21 262.997 17.63L255.437 24.74C250.877 19.82 245.267 17.36 238.607 17.36C234.287 17.36 230.417 18.32 226.997 20.24C223.577 22.1 220.907 24.71 218.987 28.07C217.067 31.43 216.107 35.24 216.107 39.5C216.107 43.76 217.067 47.57 218.987 50.93C220.907 54.29 223.577 56.93 226.997 58.85C230.417 60.71 234.287 61.64 238.607 61.64C245.267 61.64 250.877 59.15 255.437 54.17L262.997 61.37C260.057 64.79 256.427 67.4 252.107 69.2C247.847 71 243.137 71.9 237.977 71.9ZM302.32 71.9C295.9 71.9 290.11 70.52 284.95 67.76C279.79 64.94 275.74 61.07 272.8 56.15C269.86 51.17 268.39 45.62 268.39 39.5C268.39 33.38 269.86 27.86 272.8 22.94C275.74 17.96 279.79 14.09 284.95 11.33C290.11 8.51 295.9 7.1 302.32 7.1C308.74 7.1 314.53 8.51 319.69 11.33C324.85 14.09 328.9 17.93 331.84 22.85C334.78 27.77 336.25 33.32 336.25 39.5C336.25 45.68 334.78 51.23 331.84 56.15C328.9 61.07 324.85 64.94 319.69 67.76C314.53 70.52 308.74 71.9 302.32 71.9ZM302.32 61.64C306.52 61.64 310.3 60.71 313.66 58.85C317.02 56.93 319.66 54.29 321.58 50.93C323.5 47.51 324.46 43.7 324.46 39.5C324.46 35.3 323.5 31.52 321.58 28.16C319.66 24.74 317.02 22.1 313.66 20.24C310.3 18.32 306.52 17.36 302.32 17.36C298.12 17.36 294.34 18.32 290.98 20.24C287.62 22.1 284.98 24.74 283.06 28.16C281.14 31.52 280.18 35.3 280.18 39.5C280.18 43.7 281.14 47.51 283.06 50.93C284.98 54.29 287.62 56.93 290.98 58.85C294.34 60.71 298.12 61.64 302.32 61.64ZM406.521 71L406.431 29.24L385.731 63.8H380.511L359.811 29.78V71H348.651V8H358.281L383.301 49.76L407.871 8H417.501L417.591 71H406.521ZM460.528 8C465.988 8 470.728 8.9 474.748 10.7C478.828 12.5 481.948 15.08 484.108 18.44C486.268 21.8 487.348 25.79 487.348 30.41C487.348 34.97 486.268 38.96 484.108 42.38C481.948 45.74 478.828 48.32 474.748 50.12C470.728 51.92 465.988 52.82 460.528 52.82H446.308V71H434.608V8H460.528ZM459.988 42.92C465.088 42.92 468.958 41.84 471.598 39.68C474.238 37.52 475.558 34.43 475.558 30.41C475.558 26.39 474.238 23.3 471.598 21.14C468.958 18.98 465.088 17.9 459.988 17.9H446.308V42.92H459.988Z" fill="#742EE9"/>
</g>
<defs>
<filter id="filter0_di" x="0.459961" y="0.0999756" width="499.888" height="84.8" filterUnits="userSpaceOnUse" color-interpolation-filters="sRGB">
<feFlood flood-opacity="0" result="BackgroundImageFix"/>
<feColorMatrix in="SourceAlpha" type="matrix" values="0 0 0 0 0 0 0 0 0 0 0 0 0 0 0 0 0 0 127 0"/>
<feOffset dx="3" dy="3"/>
<feGaussianBlur stdDeviation="5"/>
<feColorMatrix type="matrix" values="0 0 0 0 0.44056 0 0 0 0 0.118316 0 0 0 0 0.979167 0 0 0 1 0"/>
<feBlend mode="normal" in2="BackgroundImageFix" result="effect1_dropShadow"/>
<feBlend mode="normal" in="SourceGraphic" in2="effect1_dropShadow" result="shape"/>
<feColorMatrix in="SourceAlpha" type="matrix" values="0 0 0 0 0 0 0 0 0 0 0 0 0 0 0 0 0 0 127 0" result="hardAlpha"/>
<feOffset dx="-3" dy="-3"/>
<feGaussianBlur stdDeviation="5"/>
<feComposite in2="hardAlpha" operator="arithmetic" k2="-1" k3="1"/>
<feColorMatrix type="matrix" values="0 0 0 0 0.17552 0 0 0 0 0.114722 0 0 0 0 0.491667 0 0 0 1 0"/>
<feBlend mode="normal" in2="shape" result="effect2_innerShadow"/>
</filter>
</defs>
</svg>
