<svg width="282" height="326" viewBox="0 0 282 326" fill="none" xmlns="http://www.w3.org/2000/svg">
<g filter="url(#filter0_d)">
<path d="M267.572 38.7331C274.456 28.3555 278 17.2327 278 6.00001V324H4V6C4 17.2327 7.54361 28.3554 14.4285 38.7331C21.3134 49.1108 31.4047 58.5402 44.1264 66.4829C56.848 74.4257 71.9508 80.7262 88.5724 85.0248C105.194 89.3233 123.009 91.5358 141 91.5358C158.991 91.5358 176.806 89.3233 193.428 85.0248C210.049 80.7262 225.152 74.4257 237.874 66.4829C250.595 58.5402 260.687 49.1108 267.572 38.7331Z" fill="url(#paint0_linear)"/>
</g>
<defs>
<filter id="filter0_d" x="0" y="0" width="282" height="326" filterUnits="userSpaceOnUse" color-interpolation-filters="sRGB">
<feFlood flood-opacity="0" result="BackgroundImageFix"/>
<feColorMatrix in="SourceAlpha" type="matrix" values="0 0 0 0 0 0 0 0 0 0 0 0 0 0 0 0 0 0 127 0"/>
<feOffset dy="-2"/>
<feGaussianBlur stdDeviation="2"/>
<feColorMatrix type="matrix" values="0 0 0 0 0 0 0 0 0 0 0 0 0 0 0 0 0 0 0.25 0"/>
<feBlend mode="normal" in2="BackgroundImageFix" result="effect1_dropShadow"/>
<feBlend mode="normal" in="SourceGraphic" in2="effect1_dropShadow" result="shape"/>
</filter>
<linearGradient id="paint0_linear" x1="-86" y1="5.50089" x2="354" y2="5.50089" gradientUnits="userSpaceOnUse">
<stop stop-color="white"/>
<stop offset="0.519385" stop-color="#DFDFDF"/>
<stop offset="1" stop-color="white"/>
</linearGradient>
</defs>
</svg>
